<svg width="159" height="164" viewBox="0 0 159 164" fill="none" xmlns="http://www.w3.org/2000/svg">
<ellipse cx="79.4578" cy="81.7827" rx="79.4578" ry="81.7827" fill="url(#paint0_linear_165_89)"/>
<path d="M57.0676 43H46.973C44.5932 43 42.3109 43.877 40.6281 45.4381C38.9454 46.9993 38 49.1166 38 51.3243V60.6892M121 60.6892V51.3243C121 49.1166 120.055 46.9993 118.372 45.4381C116.689 43.877 114.407 43 112.027 43H101.932M101.932 120H112.027C114.407 120 116.689 119.123 118.372 117.562C120.055 116.001 121 113.883 121 111.676V102.311M38 102.311V111.676C38 113.883 38.9454 116.001 40.6281 117.562C42.3109 119.123 44.5932 120 46.973 120H57.0676M62.1844 73.3068V65.8919M96.8156 73.3068V65.8919M74.1723 90.6047H76.8373C78.2503 90.6047 79.6054 90.084 80.6045 89.1571C81.6037 88.2302 82.165 86.973 82.165 85.6622V65.8919M95.4831 98.7168C91.1402 104.057 84.5092 105.432 79.5 105.432C74.4908 105.432 67.8598 104.059 63.5169 98.7168" stroke="white" stroke-width="4" stroke-linecap="round" stroke-linejoin="round"/>
<defs>
<linearGradient id="paint0_linear_165_89" x1="33" y1="5" x2="118.122" y2="175.382" gradientUnits="userSpaceOnUse">
<stop stop-color="#5879CA"/>
<stop offset="1" stop-color="white"/>
</linearGradient>
</defs>
</svg>
